<svg xmlns="http://www.w3.org/2000/svg" viewBox="0 0 84.51 92"><defs><style>.cls-1{fill:#fff;}.cls-2{fill:#3bdbb1;}.cls-3{fill:none;stroke:#3bdbb1;stroke-miterlimit:10;}.cls-4{fill:#f6be00;}</style></defs><title>app-icon--records</title><g id="Layer_4" data-name="Layer 4"><rect class="cls-1" x="16.34" y="16.5" width="49" height="62.89" rx="11.5" ry="11.5"/><path class="cls-2" d="M152,57a11,11,0,0,1,11,11v39.89a11,11,0,0,1-11,11H126a11,11,0,0,1-11-11V68a11,11,0,0,1,11-11h26m0-1H126a12,12,0,0,0-12,12v39.89a12,12,0,0,0,12,12h26a12,12,0,0,0,12-12V68a12,12,0,0,0-12-12Z" transform="translate(-98.16 -40)"/><rect class="cls-1" x="31.09" y="13.5" width="20.25" height="16" rx="7.5" ry="7.5"/><path class="cls-2" d="M142,54a7,7,0,0,1,7,7v1a7,7,0,0,1-7,7h-5.25a7,7,0,0,1-7-7V61a7,7,0,0,1,7-7H142m0-1h-5.25a8,8,0,0,0-8,8v1a8,8,0,0,0,8,8H142a8,8,0,0,0,8-8V61a8,8,0,0,0-8-8Z" transform="translate(-98.16 -40)"/><circle class="cls-1" cx="40.84" cy="12" r="2.5"/><path class="cls-2" d="M139,50a2,2,0,1,1-2,2,2,2,0,0,1,2-2m0-1a3,3,0,1,0,3,3,3,3,0,0,0-3-3Z" transform="translate(-98.16 -40)"/><line class="cls-3" x1="24.84" y1="36.5" x2="57.34" y2="36.5"/><line class="cls-3" x1="24.84" y1="44.5" x2="57.34" y2="44.5"/><line class="cls-3" x1="24.84" y1="53.5" x2="57.34" y2="53.5"/><line class="cls-3" x1="24.84" y1="69.5" x2="57.34" y2="69.5"/><line class="cls-3" x1="29.84" y1="61.5" x2="38.34" y2="61.5"/><line class="cls-3" x1="40.84" y1="61.5" x2="49.34" y2="61.5"/></g><g id="Layer_5" data-name="Layer 5"><path class="cls-1" d="M151.9,103a3,3,0,0,1-2.12-.87,3,3,0,0,1,0-4.27l23.46-23.46a3,3,0,0,1,4.26,4.27L154,102.16A3,3,0,0,1,151.9,103Z" transform="translate(-98.16 -40)"/><path class="cls-2" d="M175.34,74.06a2.53,2.53,0,0,1,2.52,2.52,2.47,2.47,0,0,1-.73,1.76L153.67,101.8a2.51,2.51,0,0,1-3.56-3.55l23.46-23.46a2.49,2.49,0,0,1,1.77-.73m0-1a3.51,3.51,0,0,0-2.48,1L149.41,97.54a3.49,3.49,0,0,0,0,4.95l0,0a3.51,3.51,0,0,0,4.95,0l23.46-23.46a3.51,3.51,0,0,0,0-5l0,0a3.47,3.47,0,0,0-2.47-1Z" transform="translate(-98.16 -40)"/><polygon class="cls-1" points="48.28 60.41 53.65 66.53 45.66 68.11 48.28 60.41"/><path class="cls-2" d="M146.64,101.39l4.22,4.82-6.28,1.24,2.06-6.06m-.39-2-3.18,9.34,9.69-1.92-6.51-7.42Z" transform="translate(-98.16 -40)"/></g><g id="Layer_3" data-name="Layer 3"><path class="cls-4" d="M179.67,43v86H101.16V43h78.51m3-3H98.16v92h84.51V40Z" transform="translate(-98.16 -40)"/></g></svg>