<?xml version="1.0" encoding="utf-8"?>
<!-- Generator: Adobe Illustrator 22.1.0, SVG Export Plug-In . SVG Version: 6.00 Build 0)  -->
<svg version="1.1" id="Layer_1" xmlns="http://www.w3.org/2000/svg" xmlns:xlink="http://www.w3.org/1999/xlink" x="0px" y="0px"
	 viewBox="0 0 144 144" style="enable-background:new 0 0 144 144;" xml:space="preserve">
<style type="text/css">
	.st0{fill:#00B388;}
</style>
<g>
	<path class="st0" d="M95.8,128.9H14.3V37.6h19.5c1.7,0,3-1.3,3-3V15.1h59v20l6-6v-17c0-1.7-1.3-3-3-3h-65c0,0,0,0-0.1,0
		c-0.2,0-0.4,0-0.5,0.1c0,0,0,0-0.1,0c-0.2,0-0.3,0.1-0.4,0.1c-0.1,0-0.1,0-0.2,0.1c-0.1,0.1-0.2,0.1-0.3,0.2c0,0-0.1,0.1-0.1,0.1
		C32,9.7,31.8,9.8,31.7,10L9.2,32.5c-0.1,0.1-0.2,0.3-0.3,0.4c0,0-0.1,0.1-0.1,0.1c-0.1,0.1-0.1,0.2-0.2,0.3c0,0.1,0,0.1-0.1,0.2
		c-0.1,0.1-0.1,0.3-0.1,0.4c0,0,0,0,0,0.1c0,0.2,0,0.4-0.1,0.5c0,0,0,0,0,0.1v97.3c0,1.7,1.3,3,3,3h87.5c1.7,0,3-1.3,3-3V78.4l-6,6
		V128.9z M30.8,19.3v12.3H18.6L30.8,19.3z"/>
	<path class="st0" d="M25.6,106.1c-1.7,0-3,1.3-3,3c0,1.7,1.3,3,3,3h8.2c1.7,0,3-1.3,3-3c0-1.7-1.3-3-3-3H25.6z"/>
	<path class="st0" d="M46.6,90.2c0-1.7-1.3-3-3-3h-18c-1.7,0-3,1.3-3,3c0,1.7,1.3,3,3,3h18C45.3,93.2,46.6,91.8,46.6,90.2z"/>
	<path class="st0" d="M57.4,71.9c0-1.7-1.3-3-3-3H25.6c-1.7,0-3,1.3-3,3c0,1.7,1.3,3,3,3h28.9C56.1,74.9,57.4,73.5,57.4,71.9z"/>
	<path class="st0" d="M75.3,53.5c0-1.7-1.3-3-3-3H25.6c-1.7,0-3,1.3-3,3c0,1.7,1.3,3,3,3h46.7C74,56.5,75.3,55.1,75.3,53.5z"/>
	<path class="st0" d="M133.4,21.7c-2.3-2.3-5.4-3.6-8.7-3.6c-3.3,0-6.4,1.3-8.7,3.6l-2.7,2.7l-4.4,4.4c-0.2,0.2-0.3,0.4-0.4,0.6
		c-0.2,0.1-0.4,0.3-0.6,0.4l-6.2,6.2l-6,6L61.3,76.6c0,0,0,0,0,0c-0.1,0.1-0.1,0.1-0.1,0.2c-0.1,0.1-0.2,0.2-0.3,0.3c0,0,0,0,0,0.1
		l-17.3,30.4c-0.7,1.2-0.5,2.7,0.5,3.6c0.6,0.6,1.3,0.9,2.1,0.9c0.5,0,1-0.1,1.5-0.4L78,94.4c0,0,0,0,0.1-0.1
		c0.1-0.1,0.2-0.2,0.4-0.3c0.1,0,0.1-0.1,0.2-0.1c0,0,0,0,0,0l17.2-17.2l6-6l23.5-23.6c0.2-0.2,0.3-0.4,0.4-0.6
		c0.2-0.1,0.4-0.3,0.6-0.4l4.6-4.6l2.5-2.5c2.3-2.3,3.6-5.4,3.6-8.7C137,27.1,135.7,24.1,133.4,21.7z M76.5,87.6l-8.8-8.8l28.1-28.2
		l6-6l8.3-8.3l8.8,8.8l-17.2,17.2l-6,6L76.5,87.6z M59.5,98l-2.3-2.3l6.9-12.1l7.5,7.5L59.5,98z M129.2,34.8L127,37l-2.8,2.8
		l-8.8-8.8l2.8-2.8l2.2-2.2c1.2-1.2,2.8-1.8,4.4-1.8c1.7,0,3.2,0.6,4.4,1.8c1.2,1.2,1.8,2.8,1.8,4.4C131,32.1,130.4,33.7,129.2,34.8
		z"/>
</g>
</svg>
