<?xml version="1.0" encoding="utf-8"?>
<!-- Generator: Adobe Illustrator 22.1.0, SVG Export Plug-In . SVG Version: 6.00 Build 0)  -->
<svg version="1.1" id="Layer_1" xmlns="http://www.w3.org/2000/svg" xmlns:xlink="http://www.w3.org/1999/xlink" x="0px" y="0px"
	 viewBox="0 0 144 144" style="enable-background:new 0 0 144 144;" xml:space="preserve">
<style type="text/css">
	.st0{fill:#00B388;}
</style>
<path class="st0" d="M141.2,56.8c-0.6-0.8-1.5-1.3-2.5-1.3h-17.7V43.5c0-1.7-1.3-3-3-3H54.6l-8.2-8.9c-0.6-0.6-1.4-1-2.2-1H5.3
	c-1.7,0-3,1.3-3,3v76.8c0,1.7,1.3,3,3,3h112.8l0,0l0,0c0.2,0,0.4,0,0.5-0.1c0.1,0,0.1,0,0.2,0c0.1,0,0.2-0.1,0.4-0.1
	c0.1,0,0.1,0,0.2-0.1c0.2-0.1,0.3-0.1,0.4-0.2c0,0,0,0,0,0c0.1-0.1,0.3-0.2,0.4-0.3c0,0,0.1-0.1,0.1-0.1c0.1-0.1,0.2-0.2,0.2-0.3
	c0,0,0.1-0.1,0.1-0.1c0.1-0.1,0.1-0.2,0.2-0.3c0,0,0-0.1,0.1-0.1c0,0,0,0,0,0l20.7-52C141.9,58.6,141.8,57.6,141.2,56.8z M8.3,36.6
	h34.5l8.2,8.9c0.6,0.6,1.4,1,2.2,1h61.9v11.9v49H8.3V36.6z M121.1,94.7V61.4h13.2L121.1,94.7z"/>
</svg>
