<svg width="300" height="50" viewBox="0 0 300 50" xmlns="http://www.w3.org/2000/svg"><title>logo-main</title><g fill="none" fill-rule="evenodd"><path d="M241.934 1.403v12.202h21.213v35.676h15.212V13.605h21.213V1.403h-57.638zm-17.997 19.33h9.542v10.193h-9.542V49.28h15.212V1.403h-15.212v19.33z" fill="#C8102E"/><path d="M213.397 1.403h-26.14l-14.213 31.082L158.9 1.403h-26.283v47.878h13.862l.065-35.818h2.57l17.93 35.818h12.069l17.927-35.818h2.43l.044 35.818h13.882V30.925h-8.423l-.01-10.193h8.433V1.403zM124.4 22.22c-3.073-1.937-6.144-2.297-21.856-2.8-10.071-.287-14-.502-15.285-.861-1.5-.358-2.143-1.292-2.143-3.087 0-3.517 1.071-3.804 12.856-3.804 10.713 0 12.5.144 13.713.861 1.072.646 1.285 1.294 1.429 3.948h13.998c.073-1.005.073-2.009.073-2.44 0-5.456-1.213-8.543-4-10.408-3.358-2.297-8.43-2.944-22-2.944-11.712 0-18.14.288-20.996.862-6.571 1.435-9.144 5.527-9.144 14.644 0 10.55 3.286 13.565 15.071 13.926 4.357.215 8.142.358 11.57.5l3.786.146 7.642.285c4.643.073 5.714.792 5.714 3.59 0 4.306 0 4.306-15.57 4.306-10.214 0-11.785-.143-13.142-1.004-1.142-.718-1.428-1.65-1.428-4.52h-14.07v2.51c0 6.39 1.07 9.188 4.356 11.271C78.331 49.281 84.116 50 98.901 50c14.213 0 20.213-.358 23.069-1.435 5-1.867 6.928-5.888 6.928-14.573 0-6.389-1.285-9.69-4.498-11.772zM52.278 37.08h-1.502L25.85 1.402H.425V49.28H14.91l-.059-35.676h1.572L41.492 49.28h25.212V1.403h-14.38l-.046 35.676z" fill="#54585A"/></g></svg>