<svg width="156" height="23" viewBox="0 0 156 23" xmlns="http://www.w3.org/2000/svg"><title>mynsmLogo</title><g fill="none" fill-rule="evenodd"><path d="M8.453 22H.602L7.445.79h24.633c1.219 0 2.281.054 3.188.163.906.11 1.656.3 2.25.574.593.274 1.035.645 1.324 1.114.289.468.433 1.062.433 1.78 0 .438-.046.923-.14 1.454-.094.531-.25 1.125-.469 1.781L34 22h-7.875l4.852-14.93c.14-.406.23-.757.27-1.054l.105-.82c0-.329-.055-.587-.165-.774A1.071 1.071 0 0 0 30.755 4a1.866 1.866 0 0 0-.621-.188 5.682 5.682 0 0 0-.75-.046h-2.25L21.227 22h-7.875l4.851-14.93c.14-.406.234-.765.281-1.078l.118-.797c0-.328-.055-.586-.165-.773A1.071 1.071 0 0 0 18.005 4a1.88 1.88 0 0 0-.633-.188 6.15 6.15 0 0 0-.785-.046H14.36L8.453 22zm55.383-8.555c-.422 1.328-.957 2.52-1.606 3.575a10.154 10.154 0 0 1-2.39 2.695c-.945.742-2.07 1.308-3.375 1.7-1.305.39-2.832.585-4.582.585H40.328l.961-2.977h8.79c.734 0 1.39-.09 1.968-.27a4.234 4.234 0 0 0 1.558-.878c.461-.406.872-.934 1.23-1.582.36-.648.688-1.434.985-2.355h-7.476c-1.063 0-1.95-.075-2.66-.223-.711-.149-1.282-.363-1.711-.645-.43-.28-.739-.625-.926-1.03a3.206 3.206 0 0 1-.281-1.36c0-.407.046-.832.14-1.278.094-.445.227-.918.399-1.418L45.648.79h7.875L51.04 8.406c-.172.516-.258.938-.258 1.266 0 .547.18.93.54 1.148.359.22.835.328 1.429.328h3.984L60.11.79h7.852l-4.125 12.656z" fill="#C8102E"/><path d="M85.914 7.07c.156-.406.254-.765.293-1.078.04-.312.074-.578.106-.797 0-.328-.055-.586-.165-.773A1.071 1.071 0 0 0 85.715 4a1.88 1.88 0 0 0-.633-.188 6.15 6.15 0 0 0-.785-.046H79.96L74.055 22h-7.852L73.047.79h15.797c1.86 0 3.215.265 4.066.796.852.531 1.278 1.43 1.278 2.695 0 1.032-.258 2.328-.774 3.89L88.937 22h-7.874l4.851-14.93zm31.266-3.304h-6.914c-.454 0-.91.05-1.371.152-.461.102-.891.27-1.29.504a3.977 3.977 0 0 0-1.066.926 4.478 4.478 0 0 0-.75 1.394c-.125.36-.21.692-.258.996-.047.305-.07.567-.07.785 0 .375.21.684.633.926.422.242 1.078.364 1.969.364 1.406 0 2.558.078 3.457.234.898.156 1.605.383 2.12.68.516.296.876.652 1.079 1.066.203.414.304.887.304 1.418 0 .312-.043.656-.128 1.031-.086.375-.176.719-.27 1.031l-.234.727c-.391 1.188-.922 2.168-1.594 2.941a7.327 7.327 0 0 1-2.461 1.84c-.969.453-2.09.77-3.363.95-1.274.18-2.707.269-4.301.269h-9.399l.961-2.977h7.102c.703 0 1.328-.054 1.875-.164a4.115 4.115 0 0 0 1.453-.574c.422-.273.79-.629 1.102-1.066.312-.438.578-.985.796-1.64a5.634 5.634 0 0 0 .328-1.782c0-.5-.171-.844-.515-1.031-.344-.188-.906-.282-1.688-.282-1.39 0-2.554-.082-3.492-.246-.937-.164-1.691-.39-2.261-.68-.57-.288-.977-.632-1.22-1.03a2.458 2.458 0 0 1-.362-1.301c0-.688.14-1.47.421-2.344l.141-.492c.344-1.032.824-1.903 1.441-2.614a7.209 7.209 0 0 1 2.274-1.734c.898-.445 1.937-.766 3.117-.961 1.18-.195 2.504-.293 3.973-.293h9.422l-.961 2.977zM124.352 22H116.5L123.344.79h24.633c1.218 0 2.28.054 3.187.163.906.11 1.656.3 2.25.574.594.274 1.035.645 1.324 1.114.29.468.434 1.062.434 1.78 0 .438-.047.923-.14 1.454a12.68 12.68 0 0 1-.47 1.781L149.899 22h-7.875l4.852-14.93c.14-.406.23-.757.27-1.054.039-.297.074-.57.105-.82 0-.329-.055-.587-.164-.774a1.071 1.071 0 0 0-.434-.422 1.866 1.866 0 0 0-.62-.188 5.682 5.682 0 0 0-.75-.046h-2.25L137.124 22h-7.875l4.852-14.93c.14-.406.234-.765.28-1.078.048-.312.087-.578.118-.797 0-.328-.055-.586-.164-.773a1.071 1.071 0 0 0-.434-.422 1.88 1.88 0 0 0-.632-.188 6.15 6.15 0 0 0-.786-.046h-2.226L124.352 22z" fill="#666"/></g></svg>